<svg version="1.1" viewBox="0.0 0.0 617.1443569553805 148.8766404199475" fill="none" stroke="none" stroke-linecap="square" stroke-miterlimit="10" xmlns:xlink="http://www.w3.org/1999/xlink" xmlns="http://www.w3.org/2000/svg"><clipPath id="p.0"><path d="m0 0l617.14435 0l0 148.87665l-617.14435 0l0 -148.87665z" clip-rule="nonzero"/></clipPath><g clip-path="url(#p.0)"><path fill="#000000" fill-opacity="0.0" d="m0 0l617.14435 0l0 148.87665l-617.14435 0z" fill-rule="evenodd"/><path fill="#000000" fill-opacity="0.0" d="m0 -10.312336l256.22046 0l0 146.80315l-256.22046 0z" fill-rule="evenodd"/><path fill="#000000" d="m86.375 87.63017l10.4375 -57.062504l21.75 0l-19.3125 91.0l-22.75 0l-12.1875 -51.875l-11.9375 51.875l-22.6875 0l-19.375 -91.0l21.8125 0l10.4375 57.062504l12.5 -57.062504l18.625 0l12.6875 57.062504zm62.0 33.9375l-21.125 0l0 -67.625l21.125 0l0 67.625zm-22.375 -85.0625q0 -4.5 3.25 -7.375q3.25 -2.875 8.4375 -2.875q5.1875 0 8.4375 2.875q3.25 2.875 3.25 7.375q0 4.5 -3.25 7.375q-3.25 2.875 -8.4375 2.875q-5.1875 0 -8.4375 -2.875q-3.25 -2.875 -3.25 -7.375zm40.25 85.0625l0 -53.0l-9.8125 0l0 -14.625004l9.8125 0l0 -2.25q0.1875 -13.5 8.875 -20.6875q8.25 -6.75 23.0625 -6.75q9.3125 0 22.0 3.625l-2.875 16.625l-3.5 -0.9375q-6.8125 -1.8125 -14.375 -1.8125q-12.0625 0 -12.0625 11.0l0 1.1875l13.25 0l0 14.625004l-13.25 0l0 53.0l-21.125 0zm63.625 0l-21.1875 0l0 -67.625l21.1875 0l0 67.625z" fill-rule="nonzero"/><path fill="#000000" fill-opacity="0.0" d="m223.82677 -10.312336l607.40155 0l0 146.80315l-607.40155 0z" fill-rule="evenodd"/><path fill="#000000" d="m294.32678 76.44267l-45.625015 0l0 41.75l52.000015 0l0 3.375l-55.375015 0l0 -91.0l55.375015 0l0 3.375l-52.000015 0l0 39.125004l45.625015 0l0 3.375zm25.5 -6.75q3.3125 -7.875004 9.75 -12.437504q6.4375 -4.5625 14.25 -4.5625q10.875 0 16.15625 6.15625q5.28125 6.156254 5.34375 18.593754l0 44.125l-3.375 0l0 -44.25q-0.0625 -10.875 -4.4375 -16.093754q-4.375 -5.21875 -13.875 -5.21875q-8.75 0 -15.15625 6.21875q-6.40625 6.218754 -8.65625 16.031254l0 43.3125l-3.375 0l0 -67.625l3.375 0l0 15.750004zm63.5 17.375q0 -16.1875 6.8125 -25.281254q6.8125 -9.09375 18.6875 -9.09375q7.5625 0 13.4375 3.46875q5.875 3.46875 9.4375 10.156254l0 -12.375004l3.4375 0l0 66.4375q0 13.375 -6.875 20.90625q-6.875 7.53125 -18.6875 7.53125q-6.8125 0 -12.46875 -2.9375q-5.65625 -2.9375 -9.65625 -8.4375l2.375 -2.25q3.9375 5.0 8.625 7.65625q4.6875 2.65625 11.0 2.65625q10.4375 0 16.25 -6.34375q5.8125 -6.34375 6.0 -17.90625l0 -10.375q-3.5 5.75 -9.46875 8.84375q-5.96875 3.09375 -13.53125 3.09375q-11.75 0 -18.5625 -9.3125q-6.8125 -9.3125 -6.8125 -25.5625l0 -0.875zm3.4375 1.3125q0 14.5 5.75 22.78125q5.75 8.28125 16.125 8.28125q8.5625 0 14.5625 -3.96875q6.0 -3.96875 8.5 -11.15625l0 -30.6875q-5.5 -17.562504 -22.9375 -17.562504q-10.4375 0 -16.21875 8.187504q-5.78125 8.1875 -5.78125 24.125zm74.125 33.1875l-3.375 0l0 -67.625l3.375 0l0 67.625zm-5.125 -88.75q0 -1.4375 1.0 -2.46875q1.0 -1.03125 2.4375 -1.03125q1.4375 0 2.46875 1.03125q1.03125 1.03125 1.03125 2.46875q0 1.4375 -1.03125 2.4375q-1.03125 1.0 -2.46875 1.0q-1.4375 0 -2.4375 -1.0q-1.0 -1.0 -1.0 -2.4375zm30.6875 36.875004q3.3125 -7.875004 9.75 -12.437504q6.4375 -4.5625 14.25 -4.5625q10.875 0 16.15625 6.15625q5.28125 6.156254 5.34375 18.593754l0 44.125l-3.375 0l0 -44.25q-0.0625 -10.875 -4.4375 -16.093754q-4.375 -5.21875 -13.875 -5.21875q-8.75 0 -15.15625 6.21875q-6.40625 6.218754 -8.65625 16.031254l0 43.3125l-3.375 0l0 -67.625l3.375 0l0 15.750004zm91.0 53.125q-8.1875 0 -15.03125 -4.40625q-6.84375 -4.40625 -10.71875 -12.09375q-3.875 -7.6875 -3.875 -17.0625l0 -2.8125q0 -9.375 3.75 -17.1875q3.75 -7.812504 10.3125 -12.187504q6.5625 -4.375 14.3125 -4.375q11.3125 0 18.5 8.0625q7.1875 8.062504 7.1875 21.187504l0 3.5625l-50.6875 0l0 3.6875q0 8.25 3.46875 15.28125q3.46875 7.03125 9.5625 11.03125q6.09375 4.0 13.21875 4.0q6.8125 0 11.59375 -2.28125q4.78125 -2.28125 8.46875 -7.03125l2.375 1.6875q-7.5625 10.9375 -22.4375 10.9375zm-1.25 -66.75q-9.875 0 -16.75 7.34375q-6.875 7.343754 -8.0625 18.718754l47.125 0l0 -0.8125q0 -6.875 -2.90625 -12.78125q-2.90625 -5.906254 -8.0 -9.187504q-5.09375 -3.28125 -11.40625 -3.28125z" fill-rule="nonzero"/></g></svg>