<svg version="1.1" viewBox="0.0 0.0 960.0 720.0" fill="none" stroke="none" stroke-linecap="square" stroke-miterlimit="10" xmlns:xlink="http://www.w3.org/1999/xlink" xmlns="http://www.w3.org/2000/svg"><clipPath id="p.0"><path d="m0 0l960.0 0l0 720.0l-960.0 0l0 -720.0z" clip-rule="nonzero"/></clipPath><g clip-path="url(#p.0)"><path fill="#03bfff" d="m0 0l960.0 0l0 720.0l-960.0 0z" fill-rule="evenodd"/><path fill="#ffffff" d="m0 0l960.0 0l0 720.0l-960.0 0z" fill-rule="evenodd"/><path stroke="#000000" stroke-width="1.0" stroke-linejoin="round" stroke-linecap="butt" d="m0 0l960.0 0l0 720.0l-960.0 0z" fill-rule="evenodd"/><path fill="#b7b7b7" d="m-761.95245 141.45833l903.5026 0l0 -585.1l29.66603 0l0 585.1l903.5027 0l0 29.66603l-903.5027 0l0 585.1l-29.66603 0l0 -585.1l-903.5026 0z" fill-rule="evenodd"/><path stroke="#000000" stroke-width="1.0" stroke-linejoin="round" stroke-linecap="butt" d="m-761.95245 141.45833l903.5026 0l0 -585.1l29.66603 0l0 585.1l903.5027 0l0 29.66603l-903.5027 0l0 585.1l-29.66603 0l0 -585.1l-903.5026 0z" fill-rule="evenodd"/></g></svg>