<svg version="1.1" viewBox="0.0 0.0 2560.0 1440.0" fill="none" stroke="none" stroke-linecap="square" stroke-miterlimit="10" xmlns:xlink="http://www.w3.org/1999/xlink" xmlns="http://www.w3.org/2000/svg"><clipPath id="p.0"><path d="m0 0l2560.0 0l0 1440.0l-2560.0 0l0 -1440.0z" clip-rule="nonzero"/></clipPath><g clip-path="url(#p.0)"><path fill="#000000" fill-opacity="0.0" d="m0 0l2560.0 0l0 1440.0l-2560.0 0z" fill-rule="evenodd"/><path fill="#ffffff" d="m-145.08661 -60.076115l3260.8503 0l0 1566.9607l-3260.8503 0z" fill-rule="evenodd"/><path stroke="#000000" stroke-width="1.0" stroke-linejoin="round" stroke-linecap="butt" d="m-145.08661 -60.076115l3260.8503 0l0 1566.9607l-3260.8503 0z" fill-rule="evenodd"/><path fill="#f26419" d="m-508.15158 208.68237l1603.6221 1603.6221l-166.70868 166.70862l-1603.6221 -1603.6221z" fill-rule="evenodd"/><path stroke="#000000" stroke-width="1.0" stroke-linejoin="round" stroke-linecap="butt" d="m-508.15158 208.68237l1603.6221 1603.6221l-166.70868 166.70862l-1603.6221 -1603.6221z" fill-rule="evenodd"/><path fill="#00cc44" d="m-85.583046 -232.02344l1722.9291 1722.9292l-166.70862 166.70862l-1722.9292 -1722.9292z" fill-rule="evenodd"/><path stroke="#000000" stroke-width="1.0" stroke-linejoin="round" stroke-linecap="butt" d="m-85.583046 -232.02344l1722.9291 1722.9292l-166.70862 166.70862l-1722.9292 -1722.9292z" fill-rule="evenodd"/><path fill="#ff0000" d="m820.9634 -307.93967l1824.4724 1824.4725l-166.70874 166.70862l-1824.4724 -1824.4724z" fill-rule="evenodd"/><path stroke="#000000" stroke-width="1.0" stroke-linejoin="round" stroke-linecap="butt" d="m820.9634 -307.93967l1824.4724 1824.4725l-166.70874 166.70862l-1824.4724 -1824.4724z" fill-rule="evenodd"/><path fill="#deb841" d="m1677.2362 -269.4777l1819.055 1819.055l-166.7085 166.70874l-1819.0552 -1819.0552z" fill-rule="evenodd"/><path stroke="#000000" stroke-width="1.0" stroke-linejoin="round" stroke-linecap="butt" d="m1677.2362 -269.4777l1819.055 1819.055l-166.7085 166.70874l-1819.0552 -1819.0552z" fill-rule="evenodd"/></g></svg>